G04*
G04 #@! TF.GenerationSoftware,Altium Limited,Altium Designer,24.2.2 (26)*
G04*
G04 Layer_Physical_Order=1*
G04 Layer_Color=255*
%FSLAX44Y44*%
%MOMM*%
G71*
G04*
G04 #@! TF.SameCoordinates,05489E15-EFDB-45E7-883C-6F787DBF9D26*
G04*
G04*
G04 #@! TF.FilePolarity,Positive*
G04*
G01*
G75*
%ADD16R,1.2500X1.2500*%
%ADD17C,1.2500*%
%ADD20R,1.2000X1.2000*%
%ADD21C,1.2000*%
%ADD22R,1.2500X1.2500*%
%ADD23R,1.5500X1.5500*%
%ADD24C,1.5500*%
%ADD25R,2.8000X2.8000*%
%ADD26C,2.8000*%
%ADD27R,1.5500X1.5500*%
%ADD32R,2.7300X2.7300*%
%ADD33C,2.7300*%
%ADD34C,1.7800*%
%ADD35R,1.3000X1.3000*%
%ADD36C,1.3000*%
%ADD37R,1.8500X1.8500*%
%ADD38C,1.8500*%
%ADD39R,1.2000X1.2000*%
%ADD40C,2.0000*%
%ADD42C,1.2700*%
%ADD43C,1.5000*%
%ADD44R,1.5000X1.5000*%
%ADD45C,1.1700*%
%ADD46R,1.1700X1.1700*%
%ADD47C,1.0160*%
D16*
X1471930Y216700D02*
D03*
X1356360Y276390D02*
D03*
X300990Y538950D02*
D03*
X891540Y377990D02*
D03*
X1353820Y433870D02*
D03*
X300990Y271310D02*
D03*
X1479550Y386410D02*
D03*
X805180Y835190D02*
D03*
X698500Y833920D02*
D03*
X299720Y612940D02*
D03*
X303530Y790740D02*
D03*
X1191260Y280200D02*
D03*
X1352550Y697700D02*
D03*
X1008380Y92240D02*
D03*
D17*
X1471930Y316700D02*
D03*
X1356360Y376390D02*
D03*
X300990Y438950D02*
D03*
X531660Y504190D02*
D03*
X891540Y477990D02*
D03*
X1353820Y533870D02*
D03*
X300990Y371310D02*
D03*
X1479550Y486410D02*
D03*
X1181900Y516890D02*
D03*
X805180Y935190D02*
D03*
X885990Y838200D02*
D03*
X698500Y933920D02*
D03*
X299720Y712940D02*
D03*
X884720Y918210D02*
D03*
X617690Y838200D02*
D03*
X303530Y890740D02*
D03*
X1191260Y380200D02*
D03*
X1352550Y597700D02*
D03*
X1144740Y730250D02*
D03*
X1008380Y192240D02*
D03*
D20*
X412750Y408880D02*
D03*
D21*
Y485140D02*
D03*
X1229360Y730250D02*
D03*
X1232770Y594360D02*
D03*
X1442520Y817880D02*
D03*
D22*
X631660Y504190D02*
D03*
X1281900Y516890D02*
D03*
X985990Y838200D02*
D03*
X984720Y918210D02*
D03*
X517690Y838200D02*
D03*
X1044740Y730250D02*
D03*
D23*
X204470Y394970D02*
D03*
D24*
X1470660Y688340D02*
D03*
X129470Y394970D02*
D03*
X551180Y429130D02*
D03*
X1470660Y130810D02*
D03*
X1286510Y377140D02*
D03*
X48260Y118110D02*
D03*
X50800Y237490D02*
D03*
D25*
X181610Y113020D02*
D03*
D26*
Y160020D02*
D03*
Y207020D02*
D03*
X229910Y113020D02*
D03*
Y160020D02*
D03*
Y207020D02*
D03*
D27*
X1470660Y662940D02*
D03*
X551180Y254130D02*
D03*
X1470660Y105410D02*
D03*
X1286510Y288340D02*
D03*
X48260Y92710D02*
D03*
X50800Y212090D02*
D03*
D32*
X656590Y139700D02*
D03*
X360680Y140970D02*
D03*
D33*
X720090Y139700D02*
D03*
X783590D02*
D03*
X424180Y140970D02*
D03*
X487680D02*
D03*
D34*
X612090Y139700D02*
D03*
X316180Y140970D02*
D03*
D35*
X796720Y611630D02*
D03*
X670990Y610360D02*
D03*
X545260D02*
D03*
X427150Y611630D02*
D03*
X918640D02*
D03*
X905100Y151380D02*
D03*
D36*
X818720Y706630D02*
D03*
X692990Y705360D02*
D03*
X567260D02*
D03*
X449150Y706630D02*
D03*
X940640D02*
D03*
X927100Y246380D02*
D03*
D37*
X135890Y561800D02*
D03*
D38*
Y936800D02*
D03*
D39*
X1204360Y730250D02*
D03*
X1207770Y594360D02*
D03*
X1417520Y817880D02*
D03*
D40*
X405130Y276860D02*
D03*
X430530D02*
D03*
D42*
X758190Y461010D02*
X796720Y499540D01*
X1479550Y386410D02*
X1489710Y376250D01*
Y283210D02*
Y376250D01*
X1363980Y157480D02*
X1489710Y283210D01*
X1352550Y157480D02*
X1363980D01*
X1191260Y280200D02*
X1197610Y273850D01*
Y162560D02*
Y273850D01*
X1178560Y153670D02*
X1197610Y162560D01*
X1092530Y427990D02*
X1191260Y329260D01*
Y280200D02*
Y329260D01*
X750570Y306070D02*
X763270D01*
X772160Y314960D01*
Y450850D01*
X762000Y461010D02*
X772160Y450850D01*
X758190Y461010D02*
X762000D01*
X753110Y466090D02*
X758190Y461010D01*
X129470Y394970D02*
X273450Y538950D01*
X300990D01*
X545260Y610360D02*
X585216Y650316D01*
Y770674D01*
X517690Y838200D02*
X585216Y770674D01*
X1122680Y601980D02*
X1131570D01*
X1141730Y612140D01*
Y682460D01*
X985990Y838200D02*
X1141730Y682460D01*
X796720Y499540D02*
Y611630D01*
X1181900Y389560D02*
Y516890D01*
Y389560D02*
X1191260Y380200D01*
X1204360Y665588D02*
Y730250D01*
Y665588D02*
X1207770Y594360D01*
X229910Y160020D02*
X255524Y185634D01*
Y343916D01*
X204470Y394970D02*
X255524Y343916D01*
X661162Y255270D02*
X674370D01*
X551180Y365252D02*
X661162Y255270D01*
X551180Y365252D02*
Y429130D01*
Y484670D01*
X531660Y504190D02*
X551180Y484670D01*
X680720Y717630D02*
X692990Y705360D01*
X680720Y717630D02*
Y916140D01*
X698500Y933920D01*
X1353820Y533870D02*
X1417520Y597570D01*
Y817880D01*
X891540Y164940D02*
Y377990D01*
Y164940D02*
X905100Y151380D01*
X674370Y280670D02*
X679958Y275082D01*
X687070D01*
X693420Y268732D01*
Y241808D02*
Y268732D01*
X687070Y235458D02*
X693420Y241808D01*
X635508Y235458D02*
X687070D01*
X462086Y408880D02*
X635508Y235458D01*
X412750Y408880D02*
X462086D01*
X729234Y462788D02*
Y637032D01*
X713486Y447040D02*
X729234Y462788D01*
X683260Y447040D02*
X713486D01*
X676910Y440690D02*
X683260Y447040D01*
X970534Y318186D02*
X1013130Y275590D01*
X970534Y318186D02*
Y448564D01*
X880110Y538988D02*
X970534Y448564D01*
X880110Y538988D02*
Y705612D01*
X751802Y833920D02*
X880110Y705612D01*
X698500Y833920D02*
X751802D01*
X617690Y518160D02*
Y838200D01*
Y518160D02*
X631660Y504190D01*
X837476Y965454D02*
X884720Y918210D01*
X796798Y965454D02*
X837476D01*
X698500Y867156D02*
X796798Y965454D01*
X698500Y833920D02*
Y867156D01*
X135890Y561800D02*
Y623100D01*
X303530Y790740D01*
X1207770Y542760D02*
Y594360D01*
X1181900Y516890D02*
X1207770Y542760D01*
X1232770Y383902D02*
Y594360D01*
X1209040Y360172D02*
X1232770Y383902D01*
X1185926Y360172D02*
X1209040D01*
X1254252Y157480D02*
X1276350D01*
X1227582Y130810D02*
X1254252Y157480D01*
X1227582Y112776D02*
Y130810D01*
X1195070Y80264D02*
X1227582Y112776D01*
X1093470Y80264D02*
X1195070D01*
X1071880Y101854D02*
X1093470Y80264D01*
X1071880Y101854D02*
Y280340D01*
X1092530Y300990D01*
X300990Y438950D02*
X318770Y421170D01*
Y289090D02*
Y421170D01*
X300990Y271310D02*
X318770Y289090D01*
X750570Y280670D02*
X756920Y274320D01*
X763270D01*
X769620Y267970D01*
Y245110D02*
Y267970D01*
X688340Y163830D02*
X769620Y245110D01*
X688340Y125984D02*
Y163830D01*
X661670Y99314D02*
X688340Y125984D01*
X415544Y99314D02*
X661670D01*
X399034Y115824D02*
X415544Y99314D01*
X399034Y115824D02*
Y148336D01*
X383540Y163830D02*
X399034Y148336D01*
X383540Y163830D02*
Y496100D01*
X299720Y579920D02*
X383540Y496100D01*
X299720Y579920D02*
Y612940D01*
X1322070Y567220D02*
X1352550Y597700D01*
X1322070Y78740D02*
Y567220D01*
X1296670Y53340D02*
X1322070Y78740D01*
X806450Y53340D02*
X1296670D01*
X720090Y139700D02*
X806450Y53340D01*
X927100Y246380D02*
Y392176D01*
X862330Y456946D02*
X927100Y392176D01*
X862330Y456946D02*
Y619506D01*
X800608Y681228D02*
X862330Y619506D01*
X687070Y681228D02*
X800608D01*
X642874Y725424D02*
X687070Y681228D01*
X642874Y725424D02*
Y842264D01*
X548338Y936800D02*
X642874Y842264D01*
X135890Y936800D02*
X548338D01*
X931926Y551180D02*
X1046480D01*
X900684Y582422D02*
X931926Y551180D01*
X900684Y582422D02*
Y666674D01*
X940640Y706630D01*
X985990Y706414D02*
Y838200D01*
X918640Y639064D02*
X985990Y706414D01*
X918640Y611630D02*
Y639064D01*
X1281900Y516890D02*
Y545230D01*
X1232770Y594360D02*
X1281900Y545230D01*
X487680Y140970D02*
Y190630D01*
X551180Y254130D01*
X1416050Y372580D02*
X1471930Y316700D01*
X1416050Y372580D02*
Y471640D01*
X1353820Y533870D02*
X1416050Y471640D01*
X1092530Y275590D02*
X1110310Y293370D01*
Y384810D01*
X1092530Y402590D02*
X1110310Y384810D01*
X1065530Y404190D02*
X1092530Y377190D01*
X1065530Y404190D02*
Y568960D01*
X1057910Y576580D02*
X1065530Y568960D01*
X1046480Y576580D02*
X1057910D01*
X129470Y212160D02*
Y394970D01*
Y212160D02*
X181610Y160020D01*
X1106170Y601980D02*
X1122680D01*
X1092530Y588340D02*
X1106170Y601980D01*
X1092530Y427990D02*
Y588340D01*
X531660Y504190D02*
Y554952D01*
X527304Y559308D02*
X531660Y554952D01*
X527304Y559308D02*
Y637716D01*
X567260Y677672D01*
Y705360D01*
X1442520Y423440D02*
X1479550Y386410D01*
X1442520Y423440D02*
Y817880D01*
X1470660Y105410D02*
X1483614D01*
X1489964Y111760D01*
Y198666D01*
X1471930Y216700D02*
X1489964Y198666D01*
X984720Y878840D02*
Y918210D01*
Y878840D02*
X985990Y877570D01*
Y838200D02*
Y877570D01*
D43*
X750570Y255270D02*
D03*
Y280670D02*
D03*
Y306070D02*
D03*
Y331470D02*
D03*
X674370Y255270D02*
D03*
Y280670D02*
D03*
Y306070D02*
D03*
X753110Y415290D02*
D03*
Y440690D02*
D03*
Y466090D02*
D03*
Y491490D02*
D03*
X676910Y415290D02*
D03*
Y440690D02*
D03*
Y466090D02*
D03*
X1352550Y106680D02*
D03*
Y132080D02*
D03*
Y157480D02*
D03*
Y182880D02*
D03*
X1276350Y106680D02*
D03*
Y132080D02*
D03*
Y157480D02*
D03*
X1178560Y102870D02*
D03*
Y128270D02*
D03*
Y153670D02*
D03*
Y179070D02*
D03*
X1102360Y102870D02*
D03*
Y128270D02*
D03*
Y153670D02*
D03*
X1122680Y551180D02*
D03*
Y576580D02*
D03*
Y601980D02*
D03*
Y627380D02*
D03*
X1046480Y551180D02*
D03*
Y576580D02*
D03*
Y601980D02*
D03*
D44*
X674370Y331470D02*
D03*
X676910Y491490D02*
D03*
X1276350Y182880D02*
D03*
X1102360Y179070D02*
D03*
X1046480Y627380D02*
D03*
D45*
X1092530Y427990D02*
D03*
Y402590D02*
D03*
Y377190D02*
D03*
Y351790D02*
D03*
Y326390D02*
D03*
Y300990D02*
D03*
Y275590D02*
D03*
X1013130D02*
D03*
Y300990D02*
D03*
Y326390D02*
D03*
Y351790D02*
D03*
Y377190D02*
D03*
Y402590D02*
D03*
D46*
Y427990D02*
D03*
D47*
X729234Y637032D02*
D03*
X1185926Y360172D02*
D03*
M02*
