M48
;Layer_Color=9474304
;FILE_FORMAT=4:4
METRIC,LZ
;TYPE=PLATED
T01F00S00C0.7000
T02F00S00C0.7500
T03F00S00C0.7620
T04F00S00C0.7700
T05F00S00C0.8000
T06F00S00C0.9000
T07F00S00C1.0000
T08F00S00C1.0400
T09F00S00C1.2000
T10F00S00C1.7800
T11F00S00C1.8500
;TYPE=NON_PLATED
T12F00S00C1.7800
%
T01
X0041275Y0040888
Y0048514
X0120777Y0059436
X0123277
X0122936Y0073025
X0120436
X0141752Y0081788
X0144252
T02
X0100838Y0009224
X0135636Y0027639
Y0037639
X0135382Y0043387
Y0053387
X0147955Y0048641
Y0038641
X0147193Y003167
Y002167
X0119126Y002802
Y003802
X011819Y0051689
X012819
X0100838Y0019224
X0089154Y0037799
Y0047799
X0063166Y0050419
X0053166
X0030099Y0053895
Y0043895
Y0037131
Y0027131
X0029972Y0061294
Y0071294
X0030353Y0079074
Y0089074
X0051769Y008382
X0061769
X006985Y0083392
Y0093392
X0080518Y0093519
X0088472Y0091821
X0088599Y008382
X0080518Y0083519
X0098599Y008382
X0098472Y0091821
X0104474Y0073025
X0114474
X0135255Y006977
Y005977
T03
X01185926Y00360172
X00729234Y00637032
T04
X0101313Y0027559
Y0030099
Y0032639
Y0035179
Y0037719
Y0040259
Y0042799
X0109253
Y0040259
Y0037719
Y0035179
Y0032639
Y0030099
Y0027559
T05
X009051Y0015138
X009271Y0024638
X0042715Y0061163
X0044915Y0070663
X0056726Y0070536
X0054526Y0061036
X0067099
X0069299Y0070536
X0081872Y0070663
X0079672Y0061163
X0091864
X0094064Y0070663
T06
X0110236Y0010287
Y0012827
X0117856
Y0010287
X0127635Y0010668
Y0013208
X0135255
Y0010668
Y0015748
Y0018288
X0127635
Y0015748
X0117856Y0015367
Y0017907
X0110236
Y0015367
X0075057Y0025527
Y0028067
Y0030607
Y0033147
X0067437
Y0030607
Y0028067
Y0025527
X0067691Y0041529
Y0044069
Y0046609
Y0049149
X0075311
Y0046609
Y0044069
Y0041529
X0104648Y0055118
Y0057658
Y0060198
Y0062738
X0112268
Y0060198
Y0057658
Y0055118
T07
X0128651Y0028834
Y0037714
X0055118Y0042913
Y0025413
X0043053Y0027686
X0040513
X0020447Y0039497
X0012947
T08
X0004826Y0009271
Y0011811
X0147066Y0013081
Y0010541
X000508Y0021209
Y0023749
X0147066Y0066294
Y0068834
T09
X0013589Y005618
Y009368
T10
X0036068Y0014097
X0042418
X0048768
X0065659Y001397
X0072009
X0078359
T11
X0018161Y0011302
X0022991
Y0016002
Y0020702
X0018161
Y0016002
T12
X0031618Y0014097
X0061209Y001397
M30
